<svg width="156" height="28" viewBox="0 0 156 28" fill="none" xmlns="http://www.w3.org/2000/svg">
<g clip-path="url(#clip0_1371_3614)">
<path d="M2.72512 27.5709C2.72821 27.5709 2.73232 27.5698 2.7354 27.5698H2.71484C2.71793 27.5709 2.72204 27.5709 2.72512 27.5709Z" fill="#40418F"/>
<path d="M153.622 0C153.577 0 153.533 0.00476062 153.489 0.00714093H153.764C153.718 0.00476062 153.674 0 153.629 0H153.622Z" fill="black"/>
<path d="M150.252 0.00708008H119.394V4.48682H135.206V27.5711H140.66V4.48563H150.251C149.818 3.84533 149.565 3.0753 149.565 2.24695C149.565 1.41741 149.818 0.647383 150.252 0.00708008Z" fill="#212121"/>
<path d="M153.766 0.00708008H153.491C152.304 0.0772992 151.364 1.04966 151.364 2.24338C151.364 3.48233 152.377 4.48682 153.627 4.48682C154.843 4.48682 155.831 3.53589 155.885 2.34335C155.885 2.27671 155.885 2.21006 155.885 2.1446C155.833 0.997289 154.916 0.0761091 153.766 0.00708008Z" fill="#FF7F00"/>
<path d="M2.72673 22.1643C1.22105 22.1643 0 23.3747 0 24.8683C0 26.3572 1.21387 27.5652 2.71477 27.5712H2.73869C4.23959 27.564 5.45346 26.3572 5.45346 24.8683C5.45346 23.3747 4.23361 22.1643 2.72673 22.1643Z" fill="#FF1800"/>
<path d="M35.8458 7.45196C35.8458 5.08355 34.877 3.01982 33.3809 1.75707C31.886 0.495501 30.0431 0.00634766 28.3078 0.00634766H0V4.48371H5.45346H6.69126H9.03888H27.6261C28.4357 4.48371 29.1688 4.73245 29.6137 5.10735C30.0586 5.48225 30.3923 5.95355 30.3923 7.17941V11.0534C30.3923 12.2804 30.0586 12.7505 29.6137 13.1254C29.17 13.5003 28.4369 13.7491 27.6261 13.7491H9.04007V13.7872H0V21.8862C0.719953 21.2375 1.6767 20.8424 2.72673 20.8424C3.77676 20.8424 4.73351 21.2375 5.45346 21.8862V18.2264H27.6261C28.4357 18.2264 29.1688 18.4752 29.6137 18.8501C30.0586 19.225 30.3923 19.6963 30.3923 20.9221C30.3923 20.9221 30.3923 26.9931 30.3923 27.568H35.847V21.1935C35.847 19.1095 35.0959 17.2612 33.8976 15.9866C35.0971 14.7131 35.847 12.8636 35.847 10.7796V7.45196H35.8458Z" fill="#6B52F1"/>
<path d="M71.1436 0.00708008V20.3968C71.1436 21.6239 70.81 22.094 70.3651 22.4689C69.9214 22.8438 69.1883 23.0925 68.3774 23.0925H47.7368C46.9272 23.0925 46.194 22.8438 45.7492 22.4689C45.3055 22.094 44.9718 21.6227 44.9718 20.3968C44.9718 20.3968 44.9718 11.9289 44.9718 5.69245C44.2554 6.33513 43.3071 6.72907 42.2666 6.73384H42.2307C41.1867 6.72907 40.2359 6.33394 39.5195 5.68769V20.1255C39.5195 22.4939 40.4882 24.5576 41.9832 25.8204C43.4769 27.0819 45.321 27.5711 47.0575 27.5711H69.0615C70.798 27.5711 72.6409 27.0819 74.1359 25.8204C75.6308 24.5588 76.5995 22.4939 76.5995 20.1255V0.00708008H71.1436Z" fill="#212121"/>
<path d="M44.9767 2.71005C44.9767 2.66958 44.9719 2.63031 44.9707 2.58984C44.9707 2.66839 44.9707 2.74932 44.9707 2.83026C44.9731 2.78979 44.9767 2.75051 44.9767 2.71005Z" fill="#40418F"/>
<path d="M42.2502 5.41395C43.7152 5.41395 44.9075 4.26784 44.9709 2.83013C44.9709 2.7492 44.9709 2.66946 44.9709 2.58972C44.9075 1.15439 43.7176 0.00946039 42.255 0.00708008H42.2454C40.7409 0.00946039 39.5234 1.21866 39.5234 2.70992C39.5234 4.20357 40.7445 5.41395 42.2502 5.41395Z" fill="#6B52F1"/>
<path d="M111.894 0.00708008V20.3968C111.894 21.6239 111.56 22.094 111.116 22.4689C110.672 22.8438 109.939 23.0925 109.128 23.0925H88.4873C87.6776 23.0925 86.9445 22.8438 86.4996 22.4689C86.056 22.094 85.7223 21.6227 85.7223 20.3968C85.7223 20.3968 85.7223 11.9289 85.7223 5.69245C85.0059 6.33513 84.0575 6.72907 83.0171 6.73384H82.9812C81.9372 6.72907 80.9864 6.33394 80.27 5.68769V20.1255C80.27 22.4939 81.2387 24.5576 82.7336 25.8204C84.2274 27.0819 86.0715 27.5711 87.808 27.5711H109.811C111.547 27.5711 113.39 27.0819 114.885 25.8204C116.38 24.5588 117.349 22.4939 117.349 20.1255V0.00708008H111.894Z" fill="#212121"/>
<path d="M83.0016 5.41395C84.4667 5.41395 85.659 4.26784 85.7224 2.83013C85.7224 2.7492 85.7224 2.66946 85.7224 2.58972C85.659 1.15439 84.469 0.00946039 83.0064 0.00708008H82.9969C81.4924 0.00946039 80.2749 1.21866 80.2749 2.70992C80.2749 4.20357 81.4948 5.41395 83.0016 5.41395Z" fill="#25A025"/>
</g>
<defs>
<clipPath id="clip0_1371_3614">
<rect width="155.883" height="27.5711" fill="white"/>
</clipPath>
</defs>
</svg>
